<?xml version="1.0" encoding="UTF-8"?>
<svg id="Layer_2" data-name="Layer 2" xmlns="http://www.w3.org/2000/svg" viewBox="0 0 327.72 307.88">
  <defs>
    <style>
      .cls-1 {
        fill: #a1a1a1;
      }

      .cls-2 {
        fill: #a0a0a0;
      }
    </style>
  </defs>
  <g id="Layer_1-2" data-name="Layer 1">
    <path class="cls-1" d="M278.28,208.92c5.32-3.81,8.43-8.92,10.89-14.37,1.49-3.31,3.16-3.42,6.13-2.04,3.27,1.52,2.87,3.34,1.54,5.94-6.51,12.68-15.31,22.42-30.32,24.66-2.45,.36-5.22,.87-5.35-2.34-.09-2.28-.78-5.68,3.86-6.02,4.77-.35,9.4-2.01,13.26-5.83Z"/>
    <path class="cls-1" d="M269.06,238.96c10.39-1.94,18.68-7.03,25.91-13.88,2.77-2.62,4.57-2.07,7.12,.28,3.11,2.86,.77,4.28-1.03,5.91-9.02,8.18-19.07,14.41-31.42,16.04-2.46,.32-5.58,1.64-6.17-2.64-.54-3.95,.86-6.13,5.58-5.71Z"/>
    <path class="cls-2" d="M327.66,161.58c-.38-2-2.76-1.27-4.33-1.4-14.84-1.2-28.03-6.58-39.88-15.5-3.57-2.68-5.69-5.85-5.24-10.59,.46-4.79,.67-9.62,.69-14.44,.1-29.16,.05-58.32,.23-87.48,.02-3.52-1.15-5.14-4.52-5.81-9.61-1.92-19.17-4.07-28.77-6.05-31.73-6.54-63.46-13.04-95.19-19.58-3.28-.68-6.5-1.34-9.77,.19-31.32,14.7-62.65,29.38-93.99,44.03-3.06,1.43-4.63,3.5-4.26,7.05,.42,4.13,.63,8.29,.77,12.44,.79,23.78,1.53,47.57,2.31,71.36,.04,1.33,.22,2.65,.34,3.97,.78,8.81,.64,17.63,.55,26.46-.02,2.17-.74,4.31-2.03,6.09-6.87,9.45-14.61,18.1-23.31,25.91-5.57,5-11.06,10.1-16.53,15.2-.89,.83-2.5,1.6-1.52,3.23,.91,1.51,2.29,.84,3.56,.37,5.92-2.19,11.86-4.36,17.78-6.56,26.2-9.73,52.35-19.58,78.62-29.12,6.35-2.31,12.39-6.57,19.18-6.46,11.44,.19,22.85,1.7,34.28,2.6,1.81,.14,3.16,.61,3.85,2.5,4.88,13.45,15.14,20.78,28.49,23.96,11.01,2.62,22.16,4.63,33.34,.26,29.72-11.63,59.48-23.17,89.58-34.89,4.23-1.65,8.14-3.09,11.97-4.7,1.55-.65,4.27-.61,3.81-3.05ZM157.26,10.56c26.93,5.84,53.94,11.3,81.34,16.99,9.37,1.91,18.31,3.77,27.27,5.51,3.26,.63,4.69,2.11,4.67,5.72-.16,31.14-.19,62.28-.1,93.42,.01,4.15-1.65,5.25-5.42,4.79-18.62-2.27-37.24-4.54-55.88-6.65-16.66-1.89-33.33-3.65-50.02-5.29-6.91-.68-7.01-.51-7.02-7.23-.05-34.3-.03-68.61-.2-102.91-.02-4.26,.8-5.33,5.35-4.34ZM55.36,50.18c28.06-13.08,56.08-26.23,84.06-39.46,4.01-1.9,4.11,.22,4.1,3.18-.03,13.5,0,27,0,41,.02,22-.07,43.5,.15,64.99,.04,3.96-1.23,6-4.85,7.52-26.54,11.14-53.02,22.41-79.49,33.73-3.07,1.31-4.14,.74-4.24-2.68-.55-18.13-1.23-36.26-1.92-54.38-.6-15.63-1.19-31.25-1.97-46.87-.17-3.5,.96-5.53,4.16-7.02Zm48.58,122.43c-5.09,1.53-10.04,3.55-15.42,5.46-18.24,6.78-36.11,13.45-53.98,20.11-.21-.29-.42-.59-.63-.88,3.89-4.31,8.73-8.09,11.47-13.04,6.01-10.88,15.77-15.67,26.62-20.01,21-8.4,41.67-17.61,62.49-26.47,1.64-.7,3.34-1.24,5.97-2.21-2.58,8.65-7.12,15.03-12.35,20.93-6.61,7.47-14.43,13.17-24.16,16.09Zm52.94-3.59c-7.62-.54-15.26-.9-22.88-1.49-1.16-.09-2.94,.08-3.34-1.57-.31-1.3,1.04-1.96,1.8-2.78,7.46-8,13.41-16.92,16.64-27.45,.89-2.91,2.31-3.82,5.48-3.4,10.36,1.39,20.77,2.4,31.61,3.57,21.82,2.48,43.19,4.94,64.81,7.43-.63,2.11-2.4,2.02-3.63,2.37-25.57,7.26-51.17,14.4-76.73,21.67-4.54,1.29-9.06,1.97-13.77,1.64Zm143.17-4.61c-.16,1.06-1.37,1.29-2.31,1.65-26.78,10.44-53.23,21.87-80.46,30.97-14.2,4.75-39.36,.1-47.44-15.78-1.76-3.46-1.81-5.15,2.43-6.33,30.88-8.58,61.71-17.35,92.95-26.17,5.19-2.17,9-1.77,13.28,2.16,5.47,5.03,12.24,8.55,19.19,11.48,.99,.42,2.6,.39,2.36,2.02Z"/>
    <path class="cls-2" d="M148.44,253.81c-1.03-1.82-1.63-4.08-4.76-2.87-15.86,6.15-32.44,6.9-49.14,5.95-6.42-.36-12.92-1.1-19.53-4.36,6.37-2.96,11.35-6.38,14.6-11.93,4.84-8.29,2.44-15.3-6.52-18.62-9.11-3.38-27.68,1.41-33.76,8.88-2.54,3.12-4.63,6.38-3.06,10.93,1.85,5.37,1.32,5.91-4.53,5.17-11.87-1.49-23.73-3.19-35.11-7-3.85-1.29-5.05,.34-6.23,3.34-1.38,3.51,1.14,4.01,3.38,4.65,11.52,3.29,23.21,5.55,35.12,6.99,9.73,1.18,20.1-1.16,29.43,4.88,18.88,6.46,37.79,7.2,56.99,4.36,7.26-1.07,14.38-2.64,21.25-5.24,2.56-.97,3.24-2.73,1.87-5.13Zm-86.48-6.95c-5.33,.03-8.66-6.22-6.05-11.18,6.97-5.66,14.79-7.35,23.08-6.55,4.96,.48,6.17,3.4,3.4,7.56-4.82,7.21-12.12,10.12-20.43,10.18Z"/>
    <path class="cls-2" d="M287.2,278.38c-2.43-2.16-4.2-2.78-6.58,.03-7.52,8.87-17.74,13.14-28.54,16.36-11.89,3.54-23.97,4.09-36.71,2.98,2.55-4.23,5.8-7.2,7.38-11.26,2.47-6.35-.63-12.21-7.36-13.46-8.1-1.52-15.59,.36-22.24,4.97-6.44,4.46-7.57,10.62-3.58,16.39,.79,1.15,2.62,2.07,1.57,3.79-.92,1.49-2.72,.88-4.15,.99-15.4,1.15-30.07-2.37-44.5-7.18-3.17-1.06-5.17-1.33-6.42,2.6-1.28,4.04,1.37,4.58,3.89,5.43,16.36,5.52,33.04,8.92,50.89,7.58,5.87-.64,10.87-4.12,16.52-2.81,13.22,3.07,26.41,2.52,39.57-.12,15.12-3.03,28.85-8.92,39.89-20.13,1.98-2.01,3.16-3.67,.38-6.14Zm-72.98,7.21c-.94,1.55-2.21,2.89-3.6,4.59-5.92,5.69-8.94,5.78-13.64,.87-2.2-2.3-2.27-4.38,.25-6.32,4.1-3.16,8.94-4.46,13.98-4.62,3.92-.12,5.04,2.12,3.01,5.48Z"/>
  </g>
</svg>