<svg viewBox="0 0 337 437.39" xmlns="http://www.w3.org/2000/svg" xmlns:xlink="http://www.w3.org/1999/xlink"><linearGradient id="a" gradientUnits="userSpaceOnUse" x1="183.91" x2="337" y1="186.02" y2="186.02"><stop offset="0" stop-color="#1692aa"/><stop offset="1" stop-color="#42b5c6"/></linearGradient><linearGradient id="b" gradientUnits="userSpaceOnUse" x1="145.03" x2="125.99" y1="-46.09" y2="472.1"><stop offset=".06" stop-color="#f89843"/><stop offset=".78" stop-color="#f6b579"/></linearGradient><linearGradient id="c" x1="110.15" x2="110.15" xlink:href="#b" y1="145.59" y2="296.65"/><linearGradient id="d" gradientUnits="userSpaceOnUse" x1="258.72" x2="247.84" y1="170.36" y2="294.13"><stop offset="0" stop-color="#42b5c6"/><stop offset=".06" stop-color="#3db1c3"/><stop offset=".39" stop-color="#28a0b5"/><stop offset=".71" stop-color="#1a96ad"/><stop offset="1" stop-color="#1692aa"/></linearGradient><g fill="none"><path d="m128.65 66.1.12-.09h-.09z"/><path d="m260.57 173.25a4.88 4.88 0 0 0 -8.33-3.46 4.57 4.57 0 0 0 -1.45 3.46 3.84 3.84 0 0 0 1.93 3.76c3.78 2.42 5.3 3 5.68 3.05l.21.06.21.08c.38.13 1.69.55 6.17 1.86a53.6 53.6 0 0 1 12.76 5.83l.37.24q1.74-4.19 3.36-8.43h-20.91z"/><path d="m64.83 91.17a7.21 7.21 0 0 1 .94.25 10.27 10.27 0 0 1 -2-2.87c-.05 1.08-.12 2.39 1.06 2.62z"/><path d="m69.47 41.16.42-.53-.21-.13c-.06.2-.14.43-.21.66z"/><path d="m263.65 106.62a.35.35 0 0 0 .05.08.68.68 0 0 1 0-.14z"/><path d="m266.49 84.74c0-.19 0-.38 0-.58a3.17 3.17 0 0 1 -.49.13c.08.24.19.44.49.45z"/><path d="m131.23 65.72a.42.42 0 0 1 .12 0 .42.42 0 0 0 -.12 0z"/><path d="m30.23 73.54h.08-.07z"/><path d="m30.47 73.71s0 0 0 0z"/><path d="m55.55 111.33v-.07s0 0 0 .06z"/><path d="m40.92 118.22c.09-.12.17-.25.26-.38l-.26.11z"/><path d="m186.08 363.1a1.91 1.91 0 0 0 -.33-.06l.15.08a.15.15 0 0 0 .18-.02z"/><path d="m192.85 318h5.7-.68z"/><path d="m316.55 84.41c-.07 0-.06-.07-.06-.19s0-.3 0-.45a4.43 4.43 0 0 1 -.2.45c-.12.39.28.36.35.28a.11.11 0 0 0 0 0 .23.23 0 0 0 -.09-.09z"/><path d="m291.16 141.05.06.16a3.62 3.62 0 0 0 -.2-.55 3 3 0 0 1 .14.39z"/><path d="m255.68 223.57a4.56 4.56 0 0 0 3.46-1.44 4.49 4.49 0 0 0 1.43-3.45c0-2.68-.77-3-1.52-3.24-3.74-1.38-6.32-2.33-7.72-2.86l-.54-.18v6.28a4.87 4.87 0 0 0 4.89 4.89z"/></g><path d="m336.32 137.49c0-.85-.08-1.69-.11-2.53a91.73 91.73 0 0 0 -4.14-23 90.63 90.63 0 0 0 -9.07-23.69 1.56 1.56 0 0 0 -.69-1.4 47.28 47.28 0 0 0 -6.77-11.27 6.43 6.43 0 0 0 -2.15-3.39 116.43 116.43 0 0 0 -19-22.22c-1.18-1.93-3.09-3.12-4.72-4.56a218.09 218.09 0 0 0 -51.6-33.79 1.22 1.22 0 0 0 -.36-.18c-7.17-3.77-14.42-7.33-22.28-9.46 7.33 4.49 14.24 9.51 21.23 14.4a179.51 179.51 0 0 1 31.34 31.6 150.64 150.64 0 0 1 18.11 35.52q2.4 10.88 4.79 21.76a34.46 34.46 0 0 0 .85 8.1v19.51a25.89 25.89 0 0 0 -.76 7.59c-.87 2.28-.73 4.72-1.11 7.07l-.68 2.94a38.89 38.89 0 0 1 7 22.79v6.45h-14.72q-1.62 4.25-3.36 8.43a46.24 46.24 0 0 1 12 11c4 5.2 6.07 11.78 6.07 19.55a40.6 40.6 0 0 1 -40.48 40.55 40 40 0 0 1 -16.47-3.4c-2.74 3.71-5.5 7.4-8.24 11.12l-23.76 27.42-15.24 15.73a7.47 7.47 0 0 0 -2.66 2.55 4.4 4.4 0 0 0 -2.23 2.36c-1.15 1.31-4.67 1.66-2.44 4.43 13.33 16.53 26.89 33.01 40.33 49.53 1.11 1.36 1.73 1.41 2.86.05 11.93-14.3 23.95-28.54 34.63-43.83a1.8 1.8 0 0 1 -.05-.19 1.8 1.8 0 0 0 .05.19 360.58 360.58 0 0 0 21.38-30.81 218.06 218.06 0 0 0 13.43-22.16l1.31-2.2a.34.34 0 0 0 .18-.43 262.36 262.36 0 0 0 18.7-37.75 170.3 170.3 0 0 0 11.2-31.26 9.26 9.26 0 0 0 1.29-4.38 31.08 31.08 0 0 0 2.13-9 113.6 113.6 0 0 0 4.19-27.79 87.87 87.87 0 0 0 .02-21.95zm-45.16 3.56a3 3 0 0 0 -.14-.39 3.62 3.62 0 0 1 .2.55zm-98.31 176.95h5 .68zm123.47-233.8a4.43 4.43 0 0 0 .2-.45v.45s0 .18.06.19a.23.23 0 0 1 .11 0 .11.11 0 0 1 0 0c-.09.17-.49.2-.37-.19z" fill="url(#a)"/><path d="m275.66 109.87a56.77 56.77 0 0 0 -2.76-16 52.2 52.2 0 0 0 -4.15-13.25 10 10 0 0 0 -.35-1.33c-11.25-27.61-30.29-48.29-56.16-62.7-27.08-15.04-56.09-19.72-86.6-14.59a114.44 114.44 0 0 0 -35.44 11.64 101.77 101.77 0 0 0 -22.9 13.74 124.26 124.26 0 0 0 -22.3 19.77c-.85.89-1.74 1.75-2.55 2.68a137 137 0 0 0 -14.72 19.65 114.16 114.16 0 0 0 -11.89 21.57 129.59 129.59 0 0 0 -10.37 29.29c-.62 2.22-1.17 4.46-1.66 6.7a80.8 80.8 0 0 0 -3.2 19.28c0 .74-.06 1.48-.08 2.22a77.34 77.34 0 0 0 .16 19.29 99.67 99.67 0 0 0 2.77 20.17c.36 1.72.75 3.43 1.19 5.13a28.38 28.38 0 0 0 1.84 6.87 8.13 8.13 0 0 0 1.16 3.84 149.67 149.67 0 0 0 10 27.35 229.55 229.55 0 0 0 16.66 33 .32.32 0 0 0 .17.39l1.16 1.92a191.06 191.06 0 0 0 11.94 19.34 316.48 316.48 0 0 0 19 26.88c5.07 7.14 10.47 14 16 20.75q5.31 7.18 11.14 13.95c.59 1 .9 2.24 2.12 2.78l3.52 4.24c5.09 6.7 10.47 13.16 16 19.46 4.59 5.76 9.34 11.38 14.39 16.74q11.83 14.34 24.6 27.87c.67.75 1.35 1.49 2 2.23l1.53 1.76c4.17 4.65 8.37 9.28 12.47 14 1 1.18 1.65 1.19 2.67 0 5.36-6.08 10.78-12.09 16.18-18.13 4.86-5.4 10.09-10.45 14.58-16.19 2.89-3.13 5.76-6.28 8.7-9.36 1-1 1.21-1.68.1-2.82-3.42-3.53-6.71-7.18-10.06-10.78-5.1-6.06-10.46-11.88-16-17.54l-9.74-10.88-2.13-2.35-7.07-8.05q-12.15-14.3-24.28-28.6c-10.78-13.69-21.38-27.52-31.45-41.74q-7.43-11.22-14.33-22.74l-9 23-54.88-137.55h35.87c.61-2.5 1.31-5 2.13-7.46 1.45-3.48 3.46-6.73 4.24-10.48 1.52-1 2-2.67 2.71-4.18l5.58-8.33 11-12.15 15.36-11.74a.93.93 0 0 0 1.21-.67l6.45-3.48a188.28 188.28 0 0 1 23-8.92 152.29 152.29 0 0 1 37.39-4.16c1.87.82 3.85.48 5.79.51l8.24 1a2.62 2.62 0 0 0 2.17.42l4.66.91c11.68 3.23 22.87 7.58 33 14.34.79.63 1.35 1.61 2.53 1.67l1.62 1.23 4.92 4.1a99 99 0 0 1 20.15 26.56 123 123 0 0 1 7.74 23.2 39.33 39.33 0 0 1 5.61 2.56 95.21 95.21 0 0 0 .65-27.83zm-89.58 253.23a.15.15 0 0 1 -.18 0l-.15-.08a1.91 1.91 0 0 1 .33.08zm-155.85-289.56h.07zm.24.17s0 .01 0 0zm10.45 44.51v-.22l.26-.11c-.09.11-.18.21-.26.33zm14.63-6.89s0 0 0-.06zm9.28-20.16c-1.18-.23-1.11-1.54-1.07-2.62a10.27 10.27 0 0 0 2 2.87 7.21 7.21 0 0 0 -.93-.25zm4.65-50c.07-.23.15-.46.22-.68l.21.13zm59.17 25v-.08h.09zm2.58-.38a.42.42 0 0 1 .12 0 .42.42 0 0 0 -.12-.07zm132.42 40.9v-.06a.68.68 0 0 0 0 .14.35.35 0 0 1 0-.15zm2.84-21.88c-.3 0-.41-.21-.47-.45a3.17 3.17 0 0 0 .49-.13c0 .13-.01.32-.02.51z" fill="url(#b)"/><path d="m68.71 205h-.49a.91.91 0 0 0 .56.25c-.02-.04-.05-.13-.07-.25z" fill="#fff"/><path d="m286.8 178.12a4.69 4.69 0 0 0 0 .53h.09c-.04-.2-.07-.35-.09-.53z" fill="#fff"/><path d="m68.31 140.62 20.92 51.38 20.92-51.42 20.92 51.42 20.85-51.42h24.52l-45.37 113.59-21.13-52.76-20.71 52.76-45.36-113.55z" fill="url(#c)"/><path d="m196.12 230.29v23.88h-23.88v-23.88z" fill="#1692aa"/><path d="m248 205.78a48.93 48.93 0 0 1 -10.85-5.57 41.09 41.09 0 0 1 -10.32-10q-4.58-6.24-4.57-15.54a34 34 0 0 1 58.11-24 32.76 32.76 0 0 1 10 24h-22.65a11.34 11.34 0 0 0 -22.68 0 10.25 10.25 0 0 0 4.89 9.2 31.3 31.3 0 0 0 7.44 3.83c.79.29 3 .94 6.51 2a46.47 46.47 0 0 1 11.2 5.14 39.34 39.34 0 0 1 10.6 9.68q4.72 6.1 4.72 15.61a34.06 34.06 0 0 1 -68.11 0h22.71a11.34 11.34 0 0 0 22.68 0q0-7.19-5.74-9.3t-7.78-2.89c-.67-.28-2.72-.94-6.16-2.16z" fill="url(#d)"/></svg>